<svg version="1.1" xmlns="http://www.w3.org/2000/svg" width="416" height="448" viewBox="0 0 416 448">
<title></title>
<g id="icomoon-ignore">
</g>
<path fill="#FF9C00" d="M370.5 262.5c15.25 8.75 20.5 28.5 11.75 43.75l-16 27.5c-8.75 15.25-28.5 20.5-43.75 11.75l-66.5-38.25v76.75c0 17.5-14.5 32-32 32h-32c-17.5 0-32-14.5-32-32v-76.75l-66.5 38.25c-15.25 8.75-35 3.5-43.75-11.75l-16-27.5c-8.75-15.25-3.5-35 11.75-43.75l66.5-38.5-66.5-38.5c-15.25-8.75-20.5-28.5-11.75-43.75l16-27.5c8.75-15.25 28.5-20.5 43.75-11.75l66.5 38.25v-76.75c0-17.5 14.5-32 32-32h32c17.5 0 32 14.5 32 32v76.75l66.5-38.25c15.25-8.75 35-3.5 43.75 11.75l16 27.5c8.75 15.25 3.5 35-11.75 43.75l-66.5 38.5z"></path>
</svg>
